<mxfile host="app.diagrams.net" agent="Mozilla/5.0 (Macintosh; Intel Mac OS X 10_15_7) AppleWebKit/537.36 (KHTML, like Gecko) Chrome/133.0.0.0 Safari/537.36" version="26.0.4">
  <diagram name="第 1 页" id="K4c51cqWcBI6KButup8c">
    <mxGraphModel dx="1790" dy="971" grid="0" gridSize="10" guides="1" tooltips="1" connect="1" arrows="1" fold="1" page="1" pageScale="1" pageWidth="827" pageHeight="1169" math="0" shadow="0">
      <root>
        <mxCell id="0" />
        <mxCell id="1" parent="0" />
        <mxCell id="GdpRhM1X2Ku-xJICTaHq-1" value="mba服务后台" style="shape=umlLifeline;perimeter=lifelinePerimeter;whiteSpace=wrap;html=1;container=1;dropTarget=0;collapsible=0;recursiveResize=0;outlineConnect=0;portConstraint=eastwest;newEdgeStyle={&quot;edgeStyle&quot;:&quot;elbowEdgeStyle&quot;,&quot;elbow&quot;:&quot;vertical&quot;,&quot;curved&quot;:0,&quot;rounded&quot;:0};" vertex="1" parent="1">
          <mxGeometry x="452" y="184" width="100" height="300" as="geometry" />
        </mxCell>
        <mxCell id="GdpRhM1X2Ku-xJICTaHq-2" value="" style="html=1;points=[[0,0,0,0,5],[0,1,0,0,-5],[1,0,0,0,5],[1,1,0,0,-5]];perimeter=orthogonalPerimeter;outlineConnect=0;targetShapes=umlLifeline;portConstraint=eastwest;newEdgeStyle={&quot;curved&quot;:0,&quot;rounded&quot;:0};fillColor=#808080;" vertex="1" parent="GdpRhM1X2Ku-xJICTaHq-1">
          <mxGeometry x="45" y="90" width="10" height="120" as="geometry" />
        </mxCell>
        <mxCell id="GdpRhM1X2Ku-xJICTaHq-3" value="即时通信IM后台" style="shape=umlLifeline;perimeter=lifelinePerimeter;whiteSpace=wrap;html=1;container=1;dropTarget=0;collapsible=0;recursiveResize=0;outlineConnect=0;portConstraint=eastwest;newEdgeStyle={&quot;edgeStyle&quot;:&quot;elbowEdgeStyle&quot;,&quot;elbow&quot;:&quot;vertical&quot;,&quot;curved&quot;:0,&quot;rounded&quot;:0};" vertex="1" parent="1">
          <mxGeometry x="42" y="198" width="100" height="300" as="geometry" />
        </mxCell>
        <mxCell id="GdpRhM1X2Ku-xJICTaHq-4" value="" style="html=1;points=[[0,0,0,0,5],[0,1,0,0,-5],[1,0,0,0,5],[1,1,0,0,-5]];perimeter=orthogonalPerimeter;outlineConnect=0;targetShapes=umlLifeline;portConstraint=eastwest;newEdgeStyle={&quot;curved&quot;:0,&quot;rounded&quot;:0};" vertex="1" parent="GdpRhM1X2Ku-xJICTaHq-3">
          <mxGeometry x="45" y="82" width="10" height="120" as="geometry" />
        </mxCell>
        <mxCell id="GdpRhM1X2Ku-xJICTaHq-5" value="MQ消息" style="shape=umlLifeline;perimeter=lifelinePerimeter;whiteSpace=wrap;html=1;container=1;dropTarget=0;collapsible=0;recursiveResize=0;outlineConnect=0;portConstraint=eastwest;newEdgeStyle={&quot;edgeStyle&quot;:&quot;elbowEdgeStyle&quot;,&quot;elbow&quot;:&quot;vertical&quot;,&quot;curved&quot;:0,&quot;rounded&quot;:0};" vertex="1" parent="1">
          <mxGeometry x="832" y="178" width="100" height="322" as="geometry" />
        </mxCell>
        <mxCell id="GdpRhM1X2Ku-xJICTaHq-6" value="" style="html=1;points=[[0,0,0,0,5],[0,1,0,0,-5],[1,0,0,0,5],[1,1,0,0,-5]];perimeter=orthogonalPerimeter;outlineConnect=0;targetShapes=umlLifeline;portConstraint=eastwest;newEdgeStyle={&quot;curved&quot;:0,&quot;rounded&quot;:0};" vertex="1" parent="GdpRhM1X2Ku-xJICTaHq-5">
          <mxGeometry x="48" y="88" width="10" height="120" as="geometry" />
        </mxCell>
        <mxCell id="GdpRhM1X2Ku-xJICTaHq-8" style="edgeStyle=orthogonalEdgeStyle;rounded=0;orthogonalLoop=1;jettySize=auto;html=1;curved=0;" edge="1" parent="1" source="GdpRhM1X2Ku-xJICTaHq-4" target="GdpRhM1X2Ku-xJICTaHq-1">
          <mxGeometry relative="1" as="geometry">
            <Array as="points">
              <mxPoint x="389" y="286" />
              <mxPoint x="389" y="286" />
            </Array>
          </mxGeometry>
        </mxCell>
        <mxCell id="GdpRhM1X2Ku-xJICTaHq-9" value="（HTTP Request）" style="text;html=1;align=center;verticalAlign=middle;resizable=0;points=[];autosize=1;strokeColor=none;fillColor=none;" vertex="1" parent="1">
          <mxGeometry x="111" y="259" width="121" height="26" as="geometry" />
        </mxCell>
        <mxCell id="GdpRhM1X2Ku-xJICTaHq-12" value="回调（不同的回调命令）" style="text;html=1;align=center;verticalAlign=middle;resizable=0;points=[];autosize=1;strokeColor=none;fillColor=none;" vertex="1" parent="1">
          <mxGeometry x="226" y="259" width="150" height="26" as="geometry" />
        </mxCell>
        <mxCell id="GdpRhM1X2Ku-xJICTaHq-15" style="edgeStyle=orthogonalEdgeStyle;rounded=0;orthogonalLoop=1;jettySize=auto;html=1;curved=0;" edge="1" parent="1">
          <mxGeometry relative="1" as="geometry">
            <mxPoint x="507" y="325" as="targetPoint" />
            <mxPoint x="507" y="294" as="sourcePoint" />
            <Array as="points">
              <mxPoint x="668" y="294" />
              <mxPoint x="668" y="325" />
            </Array>
          </mxGeometry>
        </mxCell>
        <mxCell id="GdpRhM1X2Ku-xJICTaHq-16" value="解析数据（本地数据处理）" style="edgeLabel;html=1;align=center;verticalAlign=middle;resizable=0;points=[];" vertex="1" connectable="0" parent="GdpRhM1X2Ku-xJICTaHq-15">
          <mxGeometry x="-0.7224" y="2" relative="1" as="geometry">
            <mxPoint x="33" y="2" as="offset" />
          </mxGeometry>
        </mxCell>
        <mxCell id="GdpRhM1X2Ku-xJICTaHq-17" style="edgeStyle=orthogonalEdgeStyle;rounded=0;orthogonalLoop=1;jettySize=auto;html=1;curved=0;" edge="1" parent="1">
          <mxGeometry relative="1" as="geometry">
            <mxPoint x="508" y="357" as="sourcePoint" />
            <mxPoint x="877.5" y="360" as="targetPoint" />
            <Array as="points">
              <mxPoint x="508" y="360" />
            </Array>
          </mxGeometry>
        </mxCell>
        <mxCell id="GdpRhM1X2Ku-xJICTaHq-18" value="封装处理MQ消息并发送" style="edgeLabel;html=1;align=center;verticalAlign=middle;resizable=0;points=[];" vertex="1" connectable="0" parent="GdpRhM1X2Ku-xJICTaHq-17">
          <mxGeometry x="-0.5168" relative="1" as="geometry">
            <mxPoint as="offset" />
          </mxGeometry>
        </mxCell>
        <mxCell id="GdpRhM1X2Ku-xJICTaHq-19" style="edgeStyle=orthogonalEdgeStyle;rounded=0;orthogonalLoop=1;jettySize=auto;html=1;curved=0;" edge="1" parent="1" source="GdpRhM1X2Ku-xJICTaHq-2" target="GdpRhM1X2Ku-xJICTaHq-3">
          <mxGeometry relative="1" as="geometry">
            <Array as="points">
              <mxPoint x="405" y="340" />
              <mxPoint x="405" y="340" />
            </Array>
          </mxGeometry>
        </mxCell>
        <mxCell id="GdpRhM1X2Ku-xJICTaHq-20" value="返回回调结果" style="text;html=1;align=center;verticalAlign=middle;resizable=0;points=[];autosize=1;strokeColor=none;fillColor=none;" vertex="1" parent="1">
          <mxGeometry x="163" y="322" width="90" height="26" as="geometry" />
        </mxCell>
      </root>
    </mxGraphModel>
  </diagram>
</mxfile>
